<svg width="44" height="44" viewBox="0 0 44 44" fill="none" xmlns="http://www.w3.org/2000/svg">
<g clip-path="url(#clip0_528_407)">
<path d="M18.6235 27.6299L15.2721 33.4034Z" fill="#5E67F2"/>
<path d="M19.3232 18.4245C19.0736 18.8541 18.7084 19.2058 18.2688 19.4402C17.8292 19.6746 17.3326 19.7824 16.8347 19.7515L14.165 19.604C13.6671 19.5731 13.1705 19.6809 12.7309 19.9153C12.2913 20.1497 11.9261 20.5014 11.6765 20.9309L11.1671 21.8085C10.9893 22.1148 10.9411 22.4787 11.0331 22.8203C11.1252 23.1618 11.3498 23.4531 11.6577 23.6299L25.5893 31.6299C25.8972 31.8067 26.2631 31.8546 26.6066 31.7631C26.95 31.6716 27.2428 31.4481 27.4206 31.1418L27.93 30.2643C28.1792 29.8345 28.3029 29.3441 28.2872 28.8482C28.2715 28.3524 28.117 27.8707 27.8411 27.4574L26.3779 25.2315C26.102 24.8181 25.9475 24.3364 25.9318 23.8406C25.9161 23.3447 26.0398 22.8543 26.289 22.4245L28.8093 18.0829C28.987 17.7766 29.2798 17.5532 29.6233 17.4616C29.9667 17.3701 30.3326 17.418 30.6405 17.5948C31.2563 17.9485 31.9882 18.0443 32.675 17.8612C33.3619 17.6782 33.9475 17.2313 34.303 16.6188C34.6585 16.0063 34.7549 15.2784 34.5709 14.5953C34.3868 13.9121 33.9375 13.3297 33.3216 12.976L24.0339 7.6427C23.4181 7.28908 22.6863 7.19325 21.9994 7.3763C21.3126 7.55935 20.727 8.00628 20.3714 8.61877C20.0159 9.23126 19.9195 9.95914 20.1036 10.6423C20.2876 11.3254 20.737 11.9079 21.3528 12.2615C21.6607 12.4383 21.8854 12.7295 21.9774 13.0711C22.0694 13.4127 22.0212 13.7766 21.8435 14.0829L19.3232 18.4245Z" fill="#5E67F2"/>
<path d="M18.6235 27.6299L15.2721 33.4034M19.3232 18.4245C19.0736 18.8541 18.7084 19.2058 18.2688 19.4402C17.8292 19.6746 17.3326 19.7824 16.8347 19.7515L14.165 19.604C13.6671 19.5731 13.1705 19.6809 12.7309 19.9153C12.2913 20.1497 11.9261 20.5014 11.6765 20.9309L11.1671 21.8085C10.9893 22.1148 10.9411 22.4787 11.0331 22.8203C11.1252 23.1618 11.3498 23.4531 11.6577 23.6299L25.5893 31.6299C25.8972 31.8067 26.2631 31.8546 26.6066 31.7631C26.95 31.6716 27.2428 31.4481 27.4206 31.1418L27.93 30.2643C28.1792 29.8345 28.3029 29.3441 28.2872 28.8482C28.2715 28.3524 28.117 27.8707 27.8411 27.4574L26.3779 25.2315C26.102 24.8181 25.9475 24.3364 25.9318 23.8406C25.9161 23.3447 26.0398 22.8543 26.289 22.4245L28.8093 18.0829C28.987 17.7766 29.2798 17.5532 29.6233 17.4616C29.9667 17.3701 30.3326 17.418 30.6405 17.5948C31.2563 17.9485 31.9882 18.0443 32.675 17.8612C33.3619 17.6782 33.9475 17.2313 34.303 16.6188C34.6585 16.0063 34.7549 15.2784 34.5709 14.5953C34.3868 13.9121 33.9375 13.3297 33.3216 12.976L24.0339 7.6427C23.4181 7.28908 22.6863 7.19325 21.9994 7.3763C21.3126 7.55935 20.727 8.00628 20.3714 8.61877C20.0159 9.23126 19.9195 9.95914 20.1036 10.6423C20.2876 11.3254 20.737 11.9079 21.3528 12.2615C21.6607 12.4383 21.8854 12.7295 21.9774 13.0711C22.0694 13.4127 22.0212 13.7766 21.8435 14.0829L19.3232 18.4245Z" stroke="#5E67F2" stroke-linecap="round" stroke-linejoin="round"/>
</g>
<defs>
<clipPath id="clip0_528_407">
<rect width="32.1303" height="32.0435" fill="white" transform="matrix(0.867193 0.497973 -0.50203 0.86485 16.0868 0)"/>
</clipPath>
</defs>
</svg>
