<svg width="24" height="23" viewBox="0 0 24 23" fill="none" xmlns="http://www.w3.org/2000/svg">
<path d="M11.0938 2.28149C11.1356 2.19697 11.2002 2.12584 11.2804 2.0761C11.3605 2.02636 11.4529 2 11.5472 2C11.6415 2 11.7339 2.02636 11.814 2.0761C11.8942 2.12584 11.9588 2.19697 12.0006 2.28149L14.2056 6.7478C14.3509 7.04178 14.5653 7.29611 14.8304 7.48897C15.0956 7.68183 15.4036 7.80746 15.7281 7.85508L20.6593 8.57671C20.7527 8.59026 20.8404 8.62967 20.9127 8.6905C20.9849 8.75133 21.0386 8.83115 21.0678 8.92093C21.097 9.01072 21.1006 9.10688 21.0779 9.19854C21.0553 9.29021 21.0075 9.37372 20.9399 9.43962L17.3737 12.9123C17.1385 13.1415 16.9626 13.4244 16.8609 13.7366C16.7594 14.0489 16.7352 14.3812 16.7905 14.7049L17.6324 19.6113C17.6489 19.7046 17.6388 19.8008 17.6033 19.8888C17.5678 19.9767 17.5082 20.0528 17.4315 20.1086C17.3548 20.1643 17.2639 20.1974 17.1694 20.2039C17.0748 20.2105 16.9802 20.1904 16.8964 20.1458L12.4884 17.8282C12.1979 17.6756 11.8748 17.5959 11.5467 17.5959C11.2186 17.5959 10.8955 17.6756 10.605 17.8282L6.1979 20.1458C6.11422 20.1901 6.01978 20.2101 5.92533 20.2033C5.83088 20.1966 5.74021 20.1636 5.66363 20.1078C5.58706 20.0522 5.52765 19.9761 5.49217 19.8883C5.45668 19.8006 5.44654 19.7045 5.4629 19.6113L6.30386 14.7059C6.35941 14.382 6.33534 14.0495 6.23373 13.737C6.13212 13.4246 5.95603 13.1415 5.72063 12.9123L2.15445 9.44058C2.08628 9.37475 2.03798 9.2911 2.01504 9.19915C1.99211 9.10721 1.99545 9.01067 2.0247 8.92053C2.05395 8.8304 2.10793 8.7503 2.18049 8.68934C2.25304 8.62838 2.34125 8.58903 2.43508 8.57576L7.36531 7.85508C7.6901 7.80783 7.99855 7.68236 8.26409 7.48948C8.52965 7.29659 8.74434 7.04206 8.88972 6.7478L11.0938 2.28149Z" stroke="#686868" stroke-width="1.95745" stroke-linecap="round" stroke-linejoin="round"/>
</svg>
