<svg width="20" height="22" viewBox="0 0 20 22" fill="none" xmlns="http://www.w3.org/2000/svg">
<g clip-path="url(#clip0_604_1006)">
<path d="M9.56985 1.23894C9.60966 1.15423 9.67121 1.08292 9.74757 1.03306C9.82385 0.983205 9.91185 0.956787 10.0017 0.956787C10.0915 0.956787 10.1795 0.983205 10.2558 1.03306C10.3321 1.08292 10.3937 1.15423 10.4335 1.23894L12.5335 5.7159C12.6718 6.01057 12.876 6.2655 13.1286 6.45883C13.3811 6.65214 13.6745 6.77808 13.9835 6.82581L18.6798 7.54916C18.7688 7.56274 18.8524 7.60224 18.9212 7.66321C18.9899 7.72419 19.0411 7.8042 19.0689 7.8942C19.0968 7.9842 19.1001 8.08059 19.0786 8.17247C19.057 8.26435 19.0115 8.34806 18.9471 8.41412L15.5508 11.895C15.3268 12.1248 15.1592 12.4084 15.0624 12.7213C14.9657 13.0344 14.9427 13.3675 14.9953 13.6919L15.7971 18.61C15.8128 18.7036 15.8032 18.8 15.7694 18.8881C15.7356 18.9763 15.6788 19.0526 15.6058 19.1085C15.5328 19.1644 15.4462 19.1975 15.3561 19.2041C15.266 19.2107 15.1759 19.1905 15.0962 19.1458L10.898 16.8227C10.6214 16.6698 10.3137 16.5899 10.0012 16.5899C9.68876 16.5899 9.38103 16.6698 9.10439 16.8227L4.90712 19.1458C4.82742 19.1902 4.73748 19.2102 4.64753 19.2034C4.55757 19.1967 4.47123 19.1636 4.39829 19.1077C4.32536 19.0519 4.26878 18.9757 4.23499 18.8877C4.20119 18.7997 4.19154 18.7035 4.20712 18.61L5.00803 13.6929C5.06094 13.3682 5.03801 13.035 4.94125 12.7217C4.84447 12.4086 4.67676 12.1248 4.45257 11.895L1.05621 8.41508C0.991292 8.3491 0.945292 8.26524 0.923446 8.17308C0.901602 8.08092 0.904789 7.98415 0.932646 7.8938C0.960501 7.80345 1.01191 7.72316 1.08101 7.66205C1.15011 7.60095 1.23412 7.5615 1.32348 7.5482L6.01894 6.82581C6.32826 6.77844 6.62202 6.65268 6.87492 6.45933C7.12783 6.26599 7.3323 6.01085 7.47076 5.7159L9.56985 1.23894Z" fill="#5E67F2" stroke="#5E67F2" stroke-width="2" stroke-linecap="round" stroke-linejoin="round"/>
</g>
<defs>
<clipPath id="clip0_604_1006">
<rect width="20" height="21.05" fill="white"/>
</clipPath>
</defs>
</svg>
