<svg width="31" height="18" viewBox="0 0 31 18" fill="none" xmlns="http://www.w3.org/2000/svg">
<path d="M10.8265 12.4856C13.1524 12.4856 15.0379 11.0164 15.0379 9.20398C15.0379 7.39161 13.1524 5.92239 10.8265 5.92239C8.50067 5.92239 6.61517 7.39161 6.61517 9.20398C6.61517 11.0164 8.50067 12.4856 10.8265 12.4856Z" fill="#5E67F2"/>
<path d="M21.0964 1H8.9794C3.55235 1 1 4.42818 1 8.65705C1 12.8859 3.55235 16.3141 8.9794 16.3141H21.0964C26.5235 16.3141 29.0758 12.8859 29.0758 8.65705C29.0758 4.42818 26.5235 1 21.0964 1Z" fill="#5E67F2"/>
<path d="M10.8265 12.4856C13.1524 12.4856 15.0379 11.0164 15.0379 9.20398C15.0379 7.39161 13.1524 5.92239 10.8265 5.92239C8.50067 5.92239 6.61517 7.39161 6.61517 9.20398C6.61517 11.0164 8.50067 12.4856 10.8265 12.4856Z" stroke="#5E67F2" stroke-width="2" stroke-linecap="round" stroke-linejoin="round"/>
<path d="M21.0964 1H8.9794C3.55235 1 1 4.42818 1 8.65705C1 12.8859 3.55235 16.3141 8.9794 16.3141H21.0964C26.5235 16.3141 29.0758 12.8859 29.0758 8.65705C29.0758 4.42818 26.5235 1 21.0964 1Z" stroke="#5E67F2" stroke-width="2" stroke-linecap="round" stroke-linejoin="round"/>
<circle cx="21.4188" cy="8.65705" r="7.15705" fill="white" stroke="#5E67F2"/>
</svg>
