<svg width="31" height="18" viewBox="0 0 31 18" fill="none" xmlns="http://www.w3.org/2000/svg">
<path d="M19.2493 4.82851C16.9234 4.82851 15.0379 6.29773 15.0379 8.1101C15.0379 9.92248 16.9234 11.3917 19.2493 11.3917C21.5751 11.3917 23.4606 9.92248 23.4606 8.1101C23.4606 6.29773 21.5751 4.82851 19.2493 4.82851Z" fill="black"/>
<path d="M8.97937 16.3141L21.0964 16.3141C26.5235 16.3141 29.0758 12.8859 29.0758 8.65703C29.0758 4.42816 26.5235 0.999983 21.0964 0.999982L8.97937 0.999981C3.55232 0.999981 0.999972 4.42816 0.999972 8.65703C0.999972 12.8859 3.55232 16.3141 8.97937 16.3141Z" fill="black"/>
<path d="M19.2493 4.82851C16.9234 4.82851 15.0379 6.29773 15.0379 8.1101C15.0379 9.92248 16.9234 11.3917 19.2493 11.3917C21.5751 11.3917 23.4606 9.92248 23.4606 8.1101C23.4606 6.29773 21.5751 4.82851 19.2493 4.82851Z" stroke="black" stroke-width="2" stroke-linecap="round" stroke-linejoin="round"/>
<path d="M8.97937 16.3141L21.0964 16.3141C26.5235 16.3141 29.0758 12.8859 29.0758 8.65703C29.0758 4.42816 26.5235 0.999983 21.0964 0.999982L8.97937 0.999981C3.55232 0.999981 0.999972 4.42816 0.999972 8.65703C0.999972 12.8859 3.55232 16.3141 8.97937 16.3141Z" stroke="black" stroke-width="2" stroke-linecap="round" stroke-linejoin="round"/>
<path d="M8.65686 15.8141C4.70422 15.814 1.49963 12.6095 1.49963 8.65686C1.49973 4.70427 4.70428 1.49973 8.65686 1.49963C12.6095 1.49963 15.814 4.70421 15.8141 8.65686C15.8141 12.6096 12.6096 15.8141 8.65686 15.8141Z" fill="white" stroke="black"/>
</svg>
